<?xml version="1.0" encoding="UTF-8" standalone="no"?>
<svg xmlns:dc="http://purl.org/dc/elements/1.1/" xmlns:cc="http://creativecommons.org/ns#" xmlns:rdf="http://www.w3.org/1999/02/22-rdf-syntax-ns#" xmlns:svg="http://www.w3.org/2000/svg" xmlns="http://www.w3.org/2000/svg" xmlns:sodipodi="http://sodipodi.sourceforge.net/DTD/sodipodi-0.dtd" xmlns:inkscape="http://www.inkscape.org/namespaces/inkscape" id="SVGRoot" version="1.1" viewBox="0 0 2048 2048" height="2048px" width="2048px" inkscape:version="1.0 (4035a4fb49, 2020-05-01)" sodipodi:docname="hairclip_final5.svg" inkscape:export-filename="/home/rodger/hairclip.png" inkscape:export-xdpi="96" inkscape:export-ydpi="96">
  <defs id="defs833"/>
  <sodipodi:namedview id="base" pagecolor="#ffffff" bordercolor="#666666" borderopacity="1.0" inkscape:pageopacity="0.0" inkscape:pageshadow="2" inkscape:zoom="4.0000001" inkscape:cx="847.08219" inkscape:cy="1270.7344" inkscape:document-units="px" inkscape:current-layer="layer1" inkscape:document-rotation="0" showgrid="false" inkscape:window-width="1440" inkscape:window-height="882" inkscape:window-x="0" inkscape:window-y="0" inkscape:window-maximized="1"/>
  <metadata id="metadata836">
    <rdf:RDF>
      <cc:Work rdf:about="">
        <dc:format>image/svg+xml</dc:format>
        <dc:type rdf:resource="http://purl.org/dc/dcmitype/StillImage"/>
        <dc:title/>
      </cc:Work>
    </rdf:RDF>
  </metadata>
  <g inkscape:label="Layer 1" inkscape:groupmode="layer" id="layer1">
    <path id="path1489" style="opacity:1;fill:#000000;fill-opacity:1;stroke:#000000;stroke-width:1px;stroke-linecap:butt;stroke-linejoin:miter;stroke-opacity:1" d="M 1571.4415,52.151109 C 1369.1348,302.63239 1161.7217,386.66972 965.7227,518.17064 719.02211,683.68867 514.22638,830.49066 504.50981,1322.6882 c 0,0 -87.06032,-58.9522 -116.25,-52.8984 -19.6778,-2.8017 -63.94596,142.4034 -11.10547,165.7343 16.67612,-2.3445 29.6259,-58.8733 66.33789,-61.0507 73.67578,-4.3698 197.13448,178.7364 126.11133,493.5 0,0 85.02921,-69.993 92.59179,-237.9278 58.09542,98.0804 133.72685,199.4618 150.74219,185.5996 18.587,-1.8796 -5.57613,-88.8032 29.20899,-95.8945 175.32877,-35.7423 353.43977,277.75 374.44537,276.3145 24.691,-1.6873 26.733,-69.2296 -35.334,-197.2754 70.6656,5.5314 102.224,16.0775 99.5664,-17.916 -1.8751,-23.9837 -49.3405,-55.7051 -83.3945,-64.2051 -74.4926,-18.5935 -151.1797,-82.4209 -4.8965,-101.8731 -0.7344,-7.8664 -74.9145,-214.1899 -291.77154,-242.8828 387.16014,-28.7356 381.79354,-148.656 341.69144,-196.0976 387.3402,-154.4754 302.8231,-308.12646 238.9063,-316.17972 307.7556,-191.7511 144.23,-336.42702 86.166,-337.83984 286.4526,-218.44742 3.916,-469.644531 3.916,-469.644531 z M 1368.629,415.91478 c 29.9956,-0.0699 48.1101,10.90287 53.8691,27.28125 23.4493,66.6884 -74.4359,183.1679 -191.2636,272.67578 56.2995,-207.17483 -42.2498,-221.71851 -51.625,-222.94141 84.4999,-56.08507 147.9145,-76.91982 189.0195,-77.01562 z m -234.2866,124.4816 c 40.3398,9.72404 68.655,107.1136 -35.7095,195.16684 -43.1705,36.4233 -99.17501,87.77224 -185.99809,144.48437 C 817.1012,942.44938 710.49395,998.32921 612.98442,1186.2077 599.82204,1004.3593 668.23748,875.03829 761.18168,777.03783 865.52595,667.01714 1071.7856,525.31683 1134.3424,540.39638 Z M 1318.629,752.8054 c 46.2352,-0.25595 77.0242,19.95135 79.1878,39.36134 4.5515,40.83186 -37.8677,71.68511 -89.6176,106.36457 -41.6581,27.91657 -107.3306,58.30824 -194.7714,90.401 101.2219,-95.60451 122.8066,-182.40387 126.4942,-218.42183 29.5793,-12.53542 56.127,-17.58008 78.707,-17.70508 z m -166.9905,48.67832 C 1106.4601,966.57481 980.63087,1025.083 944.15434,1040.532 833.3148,1087.4761 782.16622,1090.784 625.00981,1223.0261 673.53196,1129.2584 762.73592,1033.1182 858.67192,971.21751 1012.7077,871.82908 1104.6301,829.67606 1151.6385,801.48372 Z m 122.9378,193.68889 c 2.7917,0.053 5.1999,0.2707 7.1757,0.6601 -4.8171,38.85239 -152.9225,179.43359 -286.57423,186.54499 30.81113,-69.9104 41.75343,-90.8342 81.69923,-119.2832 55.4322,-39.4783 155.5764,-67.19339 194.7813,-67.91999 1.0139,-0.019 1.9874,-0.019 2.918,0 z m -281.26175,80.05179 c -4.1347,35.0237 -96.77429,114.8304 -129.44959,141.0791 -19.84126,15.9389 -106.48074,0.2187 -242.48601,77.3359 78.07718,-130.0025 374.37393,-239.0693 371.9356,-218.415 z m 68.47855,126.4423 c 86.2736,0.6547 72.0701,62.1814 -178.35751,122.2735 14.61658,-44.4492 19.16237,-51.1273 37.89453,-84.9961 57.28151,-26.9477 106.70358,-37.5336 140.46298,-37.2774 z m -211.22079,52.9043 c 0.63889,-0.012 1.20014,-0.01 1.68164,0.012 -46.18069,44.1875 -41.718,99.3997 -40.64844,106.4239 -106.61858,-35.8391 -151.02148,-26.8028 -151.02148,-26.8028 76.22656,-62.66 170.18245,-79.253 189.98828,-79.6328 z m -26.64258,154.8379 c 192.55587,-0.7923 267.02887,169.6587 245.60447,179.7984 -28.0895,13.2942 -176.51953,-170.5906 -336.05369,-169.1148 32.93488,-7.209 63.02609,-10.5708 90.44922,-10.6836 z m -131.17969,45.3242 c 346.35476,109.9615 228.8541,238.9987 219.41602,237.7324 -9.43808,-1.2659 -41.85406,-65.0471 -100.5293,-127.6738 -58.67524,-62.6266 -72.40811,-78.7381 -118.88672,-110.0586 z m -9.26953,45.3457 c 29.14955,0.4177 95.46821,18.7459 75.34961,181.7188 -25.61348,-119.4665 -88.40039,-180.6348 -88.40039,-180.6348 0,0 4.00768,-0.9279 10.34961,-1.0723 0.8588,-0.019 1.76086,-0.025 2.70117,-0.012 z" sodipodi:nodetypes="cscccscccsscssccccccssccsssscsssssccscscsccccssccsscssccsccccccsscsccscscccss"/>
  </g>
</svg>